<svg xmlns="http://www.w3.org/2000/svg" width="60" height="25" viewBox="0 0 60 25">
    <g fill="#FFF" fill-rule="evenodd">
        <path d="M0 .875V25h17.336v-4.825H5.307V.875zM53.333 9.181c0 2.033-1.482 3.412-4.066 3.412H43.89V5.665h5.273c2.585 0 4.17 1.172 4.17 3.447v.069zm.207 7.203c3.067-1.138 5.17-3.585 5.17-7.479v-.069c0-4.963-3.412-7.962-9.1-7.962H38.583V25h5.308v-7.72h4.17L53.229 25h6.205l-5.894-8.616zM28.402 4.276h-4.763v6.212h-6.314v4.762h6.314v6.212h4.763V15.25h6.314v-4.762h-6.314z"/>
    </g>
</svg>
